<?xml version="1.0" encoding="UTF-8"?>
<svg width="17px" height="14px" viewBox="0 0 17 14" version="1.1" xmlns="http://www.w3.org/2000/svg" xmlns:xlink="http://www.w3.org/1999/xlink">
    <!-- Generator: Sketch 52.2 (67145) - http://www.bohemiancoding.com/sketch -->
    <title>Shape</title>
    <desc>Created with Sketch.</desc>
    <g id="Hellow" stroke="none" stroke-width="1" fill="none" fill-rule="evenodd">
        <g id="Desktop-HD-Copy-2" transform="translate(-1037.000000, -509.000000)" fill="#4B4B5B">
            <g id="Group" transform="translate(1037.000000, 507.000000)">
                <path d="M16.8423251,3.85709345 C16.2204482,4.12684445 15.5564101,4.31048263 14.8554809,4.39348294 C15.5690584,3.97121887 16.1182074,3.3041039 16.3764444,2.50937596 C15.7081902,2.89325238 14.967208,3.17337842 14.1787945,3.329004 C13.5484853,2.66500154 12.6504528,2.25 11.6533417,2.25 C9.7434416,2.25 8.19401936,3.77513065 8.19401936,5.6530126 C8.19401936,5.9227636 8.22564022,6.18213956 8.28361181,6.43114049 C5.40822142,6.29626499 2.85852592,4.93713495 1.1520534,2.88287734 C0.852709244,3.38191669 0.684064647,3.96291884 0.684064647,4.59579619 C0.684064647,5.77855057 1.29540131,6.81916692 2.2229466,7.43025669 C1.65587914,7.41261912 1.12148657,7.25906855 0.655605871,7.00488011 L0.655605871,7.04638026 C0.655605871,8.69601137 1.84665834,10.0738165 3.43086352,10.3871426 C3.13995159,10.4639179 2.83428326,10.5054181 2.51912867,10.5054181 C2.29778264,10.5054181 2.08697689,10.484668 1.87617114,10.4452429 C2.31886321,11.7981479 3.59423798,12.782739 5.11203935,12.8107516 C3.93152717,13.723755 2.43480637,14.267407 0.822142411,14.267407 C0.548094941,14.267407 0.27404747,14.2518445 0,14.2207193 C1.53888195,15.1855979 3.35181137,15.75 5.31230481,15.75 C11.6786384,15.75 15.1569332,10.5624808 15.1569332,6.07008915 C15.1569332,5.92483861 15.1569332,5.77958807 15.1463929,5.63433753 C15.8209713,5.15708577 16.4112274,4.55533354 16.875,3.870581 L16.8423251,3.85709345 Z" id="Shape"></path>
            </g>
        </g>
    </g>
</svg>