<?xml version="1.0" encoding="UTF-8"?>
<svg width="244px" height="64px" viewBox="0 0 244 64" version="1.1" xmlns="http://www.w3.org/2000/svg" xmlns:xlink="http://www.w3.org/1999/xlink">
    <!-- Generator: Sketch 52.2 (67145) - http://www.bohemiancoding.com/sketch -->
    <title>uiLogos</title>
    <desc>Created with Sketch.</desc>
    <g id="uiLogos" stroke="none" stroke-width="1" fill="none" fill-rule="evenodd">
        <g id="Landing-Page" transform="translate(-598.000000, -80.000000)" fill="#07157C">
            <g id="uiLogos" transform="translate(598.000000, 80.000000)">
                <path d="M23.5685484,15.5767833 L32.4112903,15.5767833 L32.4112903,49.8509768 L23.5685484,49.8509768 L23.5685484,46.0122672 C21.4206882,49.2112079 18.0161523,50.8106542 13.3548387,50.8106542 C9.60750815,50.8106542 6.51143696,49.5539464 4.06653226,47.040493 C1.62162756,44.5270395 0.399193548,41.053956 0.399193548,36.6211381 L0.399193548,15.5767833 L9.24193548,15.5767833 L9.24193548,35.5243639 C9.24193548,37.8093216 9.8588648,39.557288 11.0927419,40.7683155 C12.3266191,41.9793431 13.9717639,42.5848478 16.0282258,42.5848478 C18.3131835,42.5848478 20.1411222,41.8765215 21.5120968,40.4598478 C22.8830714,39.043174 23.5685484,36.9181953 23.5685484,34.0848478 L23.5685484,15.5767833 Z M44.8870968,11.4638801 C43.4247239,11.4638801 42.1565914,10.9269231 41.0826613,9.85299296 C40.0087312,8.77906286 39.4717742,7.51093038 39.4717742,6.04855747 C39.4717742,4.58618457 40.0087312,3.30662747 41.0826613,2.2098478 C42.1565914,1.11306812 43.4247239,0.564686506 44.8870968,0.564686506 C46.3951688,0.564686506 47.6861505,1.11306812 48.7600806,2.2098478 C49.8340107,3.30662747 50.3709677,4.58618457 50.3709677,6.04855747 C50.3709677,7.51093038 49.8340107,8.77906286 48.7600806,9.85299296 C47.6861505,10.9269231 46.3951688,11.4638801 44.8870968,11.4638801 Z M40.5,49.8509768 L40.5,15.5767833 L49.3427419,15.5767833 L49.3427419,49.8509768 L40.5,49.8509768 Z" id="ui"></path>
                <path d="M67.1715452,44.3145161 L89.1070291,44.3145161 L89.1070291,48.8387097 L62.3731581,48.8387097 L62.3731581,0.85483871 L67.1715452,0.85483871 L67.1715452,44.3145161 Z M122.284448,44.5201613 C118.811313,47.9475978 114.561355,49.6612903 109.534448,49.6612903 C104.507542,49.6612903 100.246159,47.9361732 96.7501742,44.4858871 C93.254189,41.035601 91.5062226,36.7742189 91.5062226,31.7016129 C91.5062226,26.6290069 93.254189,22.3676248 96.7501742,18.9173387 C100.246159,15.4670526 104.507542,13.7419355 109.534448,13.7419355 C114.561355,13.7419355 118.822737,15.4670526 122.318723,18.9173387 C125.814708,22.3676248 127.562674,26.6290069 127.562674,31.7016129 C127.562674,36.7742189 125.803283,41.0470256 122.284448,44.5201613 Z M99.9376742,41.3669355 C102.542526,43.9717872 105.741419,45.2741935 109.534448,45.2741935 C113.327478,45.2741935 116.526371,43.9603626 119.131223,41.3326613 C121.736074,38.70496 123.038481,35.4946426 123.038481,31.7016129 C123.038481,27.9085832 121.736074,24.6982658 119.131223,22.0705645 C116.526371,19.4428632 113.327478,18.1290323 109.534448,18.1290323 C105.741419,18.1290323 102.542526,19.4428632 99.9376742,22.0705645 C97.3328225,24.6982658 96.0304162,27.9085832 96.0304162,31.7016129 C96.0304162,35.4946426 97.3328225,38.7163846 99.9376742,41.3669355 Z M164.578803,14.5645161 L169.102997,14.5645161 L169.102997,47.4677419 C169.102997,52.4032505 167.412154,56.2876202 164.030416,59.1209677 C160.648679,61.9543152 156.604364,63.3709677 151.897352,63.3709677 C143.854301,63.3709677 138.439032,60.5833612 135.651384,55.0080645 L139.62719,52.7459677 C141.683652,56.9045907 145.773665,58.983871 151.897352,58.983871 C155.827479,58.983871 158.92355,57.9442308 161.185658,55.8649194 C163.447766,53.7856079 164.578803,50.9865767 164.578803,47.4677419 L164.578803,42.1209677 C161.425562,47.1478746 156.810016,49.6612903 150.732029,49.6612903 C145.84222,49.6612903 141.672234,47.9247485 138.221948,44.4516129 C134.771662,40.9784773 133.046545,36.7285198 133.046545,31.7016129 C133.046545,26.674706 134.771662,22.4247485 138.221948,18.9516129 C141.672234,15.4784773 145.84222,13.7419355 150.732029,13.7419355 C156.810016,13.7419355 161.425562,16.2553512 164.578803,21.2822581 L164.578803,14.5645161 Z M141.477997,41.3669355 C144.082849,43.9717872 147.281741,45.2741935 151.074771,45.2741935 C154.867801,45.2741935 158.066693,43.9603626 160.671545,41.3326613 C163.276397,38.70496 164.578803,35.4946426 164.578803,31.7016129 C164.578803,27.9085832 163.276397,24.6982658 160.671545,22.0705645 C158.066693,19.4428632 154.867801,18.1290323 151.074771,18.1290323 C147.281741,18.1290323 144.082849,19.4428632 141.477997,22.0705645 C138.873145,24.6982658 137.570739,27.9085832 137.570739,31.7016129 C137.570739,35.4946426 138.873145,38.7163846 141.477997,41.3669355 Z M207.421545,44.5201613 C203.94841,47.9475978 199.698452,49.6612903 194.671545,49.6612903 C189.644638,49.6612903 185.383256,47.9361732 181.887271,44.4858871 C178.391286,41.035601 176.643319,36.7742189 176.643319,31.7016129 C176.643319,26.6290069 178.391286,22.3676248 181.887271,18.9173387 C185.383256,15.4670526 189.644638,13.7419355 194.671545,13.7419355 C199.698452,13.7419355 203.959834,15.4670526 207.455819,18.9173387 C210.951805,22.3676248 212.699771,26.6290069 212.699771,31.7016129 C212.699771,36.7742189 210.94038,41.0470256 207.421545,44.5201613 Z M185.074771,41.3669355 C187.679623,43.9717872 190.878515,45.2741935 194.671545,45.2741935 C198.464575,45.2741935 201.663468,43.9603626 204.268319,41.3326613 C206.873171,38.70496 208.175577,35.4946426 208.175577,31.7016129 C208.175577,27.9085832 206.873171,24.6982658 204.268319,22.0705645 C201.663468,19.4428632 198.464575,18.1290323 194.671545,18.1290323 C190.878515,18.1290323 187.679623,19.4428632 185.074771,22.0705645 C182.469919,24.6982658 181.167513,27.9085832 181.167513,31.7016129 C181.167513,35.4946426 182.469919,38.7163846 185.074771,41.3669355 Z M223.119126,23.5443548 C223.119126,25.098126 223.804603,26.3319847 225.175577,27.2459677 C226.546552,28.1599508 228.214546,28.8682771 230.17961,29.3709677 C232.144673,29.8736584 234.109707,30.4334647 236.074771,31.0504032 C238.039835,31.6673418 239.707829,32.6955573 241.078803,34.1350806 C242.449778,35.574604 243.135255,37.4596658 243.135255,39.7903226 C243.135255,42.7150684 241.981369,45.0913887 239.673561,46.9193548 C237.365754,48.747321 234.383929,49.6612903 230.727997,49.6612903 C227.437658,49.6612903 224.638627,48.9301148 222.330819,47.4677419 C220.023012,46.005369 218.412141,44.1088826 217.498158,41.7782258 L221.336868,39.516129 C221.976656,41.298396 223.130542,42.7036239 224.798561,43.7318548 C226.46658,44.7600858 228.443039,45.2741935 230.727997,45.2741935 C232.967255,45.2741935 234.840892,44.8286335 236.348965,43.9375 C237.857037,43.0463665 238.611061,41.6639879 238.611061,39.7903226 C238.611061,38.2365514 237.925584,37.0026927 236.55461,36.0887097 C235.183635,35.1747266 233.515641,34.4664004 231.550577,33.9637097 C229.585514,33.461019 227.62048,32.9012128 225.655416,32.2842742 C223.690353,31.6673356 222.022359,30.6391201 220.651384,29.1995968 C219.280409,27.7600734 218.594932,25.8750117 218.594932,23.5443548 C218.594932,20.7567065 219.70312,18.4260846 221.919529,16.5524194 C224.135938,14.6787541 226.934969,13.7419355 230.316706,13.7419355 C233.104355,13.7419355 235.549223,14.3702894 237.651384,15.6270161 C239.753545,16.8837428 241.307293,18.5860108 242.312674,20.733871 L238.542513,22.9274194 C237.217237,19.7284786 234.475329,18.1290323 230.316706,18.1290323 C228.351643,18.1290323 226.6608,18.5974416 225.244126,19.5342742 C223.827452,20.4711068 223.119126,21.807787 223.119126,23.5443548 Z" id="Logos"></path>
            </g>
        </g>
    </g>
</svg>