<?xml version="1.0" encoding="UTF-8"?>
<svg width="48px" height="48px" viewBox="0 0 48 48" version="1.1" xmlns="http://www.w3.org/2000/svg" xmlns:xlink="http://www.w3.org/1999/xlink">
    <!-- Generator: Sketch 52.2 (67145) - http://www.bohemiancoding.com/sketch -->
    <title>uiLogo-Icon Copy</title>
    <desc>Created with Sketch.</desc>
    <g id="uiLogos" stroke="none" stroke-width="1" fill="none" fill-rule="evenodd">
        <g id="uiLogo-Icon-Copy">
            <path d="M24.59985,47.639625 C19.7721,47.639625 15.2871,46.146375 11.5806,43.597875 C15.04935,45.631875 19.0881,46.800375 23.39985,46.800375 C36.32385,46.800375 46.8006,36.323625 46.8006,23.400375 C46.8006,19.088625 45.6321,15.049125 43.5981,11.580375 C46.1466,15.286875 47.63985,19.771875 47.63985,24.599625 C47.63985,37.304625 37.3041,47.639625 24.59985,47.639625 M7.72785,40.272375 C3.90285,36.157125 1.55985,30.647625 1.55985,24.599625 C1.55985,21.409875 2.2116,18.369375 3.38985,15.604125 C2.5941,17.854875 2.15985,20.276625 2.15985,22.800375 C2.15985,34.729125 11.8311,44.400375 23.75985,44.400375 C35.68935,44.400375 45.3606,34.729125 45.3606,22.800375 C45.3606,13.527375 39.5166,5.620875 31.3116,2.558625 C34.6926,3.589875 37.7451,5.379375 40.27185,7.727625 C44.09685,11.842875 46.43985,17.352375 46.43985,23.400375 C46.43985,36.103875 36.1041,46.439625 23.39985,46.439625 C17.3526,46.439625 11.84235,44.096625 7.72785,40.272375 M31.4376,42.349875 C38.6856,39.409125 43.8006,32.303625 43.8006,23.999625 C43.8006,19.165125 42.0651,14.737875 39.18735,11.299875 C35.45685,6.472125 29.6136,3.360375 23.03985,3.360375 C11.77335,3.360375 2.63985,12.493875 2.63985,23.759625 C2.63985,24.559875 2.69085,25.346625 2.7801,26.122125 C2.60985,25.039125 2.5206,23.929875 2.5206,22.800375 C2.5206,17.765625 4.2816,13.135125 7.21935,9.491625 C11.3616,4.732875 17.4201,1.686375 24.17985,1.564875 C35.6991,1.789875 44.99985,11.228625 44.99985,22.800375 C44.99985,33.598125 36.89985,42.540375 26.45685,43.870125 C28.20285,43.574625 29.87235,43.058625 31.4376,42.349875 M21.0531,43.580625 C10.99785,42.580125 3.11985,34.072875 3.11985,23.759625 C3.11985,12.776625 12.0561,3.840375 23.03985,3.840375 C25.6941,3.840375 28.2261,4.366125 30.54435,5.311875 C28.4946,4.594125 26.2941,4.199625 23.99985,4.199625 C13.06485,4.199625 4.19985,13.064625 4.19985,23.999625 C4.19985,33.934125 11.5161,42.156375 21.0531,43.580625 M0.3606,23.400375 C0.3606,10.695375 10.6956,0.360375 23.39985,0.360375 C28.22835,0.360375 32.7126,1.853625 36.41985,4.402125 C32.9511,2.368125 28.9116,1.199625 24.59985,1.199625 C24.4596,1.199625 24.3201,1.202625 24.17985,1.205625 C24.04035,1.202625 23.9001,1.199625 23.75985,1.199625 C16.9686,1.199625 10.91085,4.335375 6.9516,9.235125 C3.3696,13.345875 1.19985,18.718875 1.19985,24.599625 C1.19985,28.911375 2.3676,32.950875 4.4016,36.419625 C1.85385,32.713125 0.3606,28.228125 0.3606,23.400375 M40.53435,7.465875 C36.26235,2.873625 30.1671,-0.000375 23.39985,-0.000375 C10.4766,-0.000375 -0.00015,10.476375 -0.00015,23.400375 C-0.00015,30.166875 2.8731,36.262125 7.46535,40.534125 C11.7381,45.126375 17.83335,47.999625 24.59985,47.999625 C37.5231,47.999625 47.99985,37.523625 47.99985,24.599625 C47.99985,17.833125 45.1266,11.737875 40.53435,7.465875" id="Fill-1" fill="#07157C"></path>
            <path d="M23.99925,19.01805 C29.55075,9.8568 44.05725,23.45955 23.99925,34.3998 C3.9435,23.45955 18.4485,9.8568 23.99925,19.01805" id="Fill-4" fill="#FFFFFF"></path>
        </g>
    </g>
</svg>