<?xml version="1.0" encoding="UTF-8"?>
<svg width="236px" height="62px" viewBox="0 0 236 62" version="1.1" xmlns="http://www.w3.org/2000/svg" xmlns:xlink="http://www.w3.org/1999/xlink">
    <!-- Generator: Sketch 52.2 (67145) - http://www.bohemiancoding.com/sketch -->
    <title>uiLogos</title>
    <desc>Created with Sketch.</desc>
    <g id="uiLogos" stroke="none" stroke-width="1" fill="none" fill-rule="evenodd">
        <g id="Landing-Page" transform="translate(-602.000000, -91.000000)" fill="#07157C">
            <g id="uiLogos" transform="translate(602.000000, 91.000000)">
                <path d="M22.8320312,15.0900088 L31.3984375,15.0900088 L31.3984375,48.2931338 L22.8320312,48.2931338 L22.8320312,44.5743838 C20.7512917,47.6733576 17.4531476,49.2228213 12.9375,49.2228213 C9.30727352,49.2228213 6.30795455,48.0053856 3.93945312,45.5704776 C1.5709517,43.1355695 0.38671875,39.7710199 0.38671875,35.4767276 L0.38671875,15.0900088 L8.953125,15.0900088 L8.953125,34.4142276 C8.953125,36.6277803 9.55077527,38.3211227 10.7460938,39.4943057 C11.9414122,40.6674886 13.5351463,41.2540713 15.5273438,41.2540713 C17.7408965,41.2540713 19.5117121,40.5678802 20.8398438,39.1954776 C22.1679754,37.8230749 22.8320312,35.7645017 22.8320312,33.0196963 L22.8320312,15.0900088 Z M43.484375,11.1056338 C42.0677012,11.1056338 40.8391979,10.5854567 39.7988281,9.54508693 C38.7584583,8.50471714 38.2382812,7.2762138 38.2382812,5.85954005 C38.2382812,4.4428663 38.7584583,3.20329537 39.7988281,2.14079005 C40.8391979,1.07828474 42.0677012,0.547040053 43.484375,0.547040053 C44.9453198,0.547040053 46.1959583,1.07828474 47.2363281,2.14079005 C48.2766979,3.20329537 48.796875,4.4428663 48.796875,5.85954005 C48.796875,7.2762138 48.2766979,8.50471714 47.2363281,9.54508693 C46.1959583,10.5854567 44.9453198,11.1056338 43.484375,11.1056338 Z M39.234375,48.2931338 L39.234375,15.0900088 L47.8007812,15.0900088 L47.8007812,48.2931338 L39.234375,48.2931338 Z" id="ui"></path>
                <path d="M65.0724344,42.9296875 L86.3224344,42.9296875 L86.3224344,47.3125 L60.4239969,47.3125 L60.4239969,0.828125 L65.0724344,0.828125 L65.0724344,42.9296875 Z M118.463059,43.1289062 C115.098459,46.4492354 110.981313,48.109375 106.111497,48.109375 C101.241681,48.109375 97.113467,46.4381678 93.7267313,43.0957031 C90.3399956,39.7532385 88.6466532,35.6250246 88.6466532,30.7109375 C88.6466532,25.7968504 90.3399956,21.6686365 93.7267313,18.3261719 C97.113467,14.9837072 101.241681,13.3125 106.111497,13.3125 C110.981313,13.3125 115.109527,14.9837072 118.496263,18.3261719 C121.882998,21.6686365 123.576341,25.7968504 123.576341,30.7109375 C123.576341,35.6250246 121.871931,39.7643061 118.463059,43.1289062 Z M96.8146219,40.0742188 C99.338072,42.5976689 102.436999,43.859375 106.111497,43.859375 C109.785994,43.859375 112.884922,42.5866013 115.408372,40.0410156 C117.931822,37.49543 119.193528,34.385435 119.193528,30.7109375 C119.193528,27.03644 117.931822,23.926445 115.408372,21.3808594 C112.884922,18.8352737 109.785994,17.5625 106.111497,17.5625 C102.436999,17.5625 99.338072,18.8352737 96.8146219,21.3808594 C94.2911718,23.926445 93.0294657,27.03644 93.0294657,30.7109375 C93.0294657,34.385435 94.2911718,37.5064976 96.8146219,40.0742188 Z M159.435716,14.109375 L163.818528,14.109375 L163.818528,45.984375 C163.818528,50.7656489 162.180524,54.5286321 158.904466,57.2734375 C155.628408,60.0182429 151.710478,61.390625 147.150559,61.390625 C139.358854,61.390625 134.112812,58.6901312 131.412278,53.2890625 L135.263841,51.0976562 C137.256038,55.1263222 141.218238,57.140625 147.150559,57.140625 C150.95787,57.140625 153.957189,56.1334736 156.148606,54.1191406 C158.340023,52.1048076 159.435716,49.3932462 159.435716,45.984375 L159.435716,40.8046875 C156.381013,45.6745035 151.909703,48.109375 146.021653,48.109375 C141.28465,48.109375 137.244977,46.4271002 133.902513,43.0625 C130.560048,39.6978998 128.888841,35.5807535 128.888841,30.7109375 C128.888841,25.8411215 130.560048,21.7239752 133.902513,18.359375 C137.244977,14.9947748 141.28465,13.3125 146.021653,13.3125 C151.909703,13.3125 156.381013,15.7473715 159.435716,20.6171875 L159.435716,14.109375 Z M137.056809,40.0742188 C139.58026,42.5976689 142.679187,43.859375 146.353684,43.859375 C150.028182,43.859375 153.127109,42.5866013 155.650559,40.0410156 C158.17401,37.49543 159.435716,34.385435 159.435716,30.7109375 C159.435716,27.03644 158.17401,23.926445 155.650559,21.3808594 C153.127109,18.8352737 150.028182,17.5625 146.353684,17.5625 C142.679187,17.5625 139.58026,18.8352737 137.056809,21.3808594 C134.533359,23.926445 133.271653,27.03644 133.271653,30.7109375 C133.271653,34.385435 134.533359,37.5064976 137.056809,40.0742188 Z M200.939622,43.1289062 C197.575022,46.4492354 193.457875,48.109375 188.588059,48.109375 C183.718243,48.109375 179.590029,46.4381678 176.203294,43.0957031 C172.816558,39.7532385 171.123216,35.6250246 171.123216,30.7109375 C171.123216,25.7968504 172.816558,21.6686365 176.203294,18.3261719 C179.590029,14.9837072 183.718243,13.3125 188.588059,13.3125 C193.457875,13.3125 197.586089,14.9837072 200.972825,18.3261719 C204.359561,21.6686365 206.052903,25.7968504 206.052903,30.7109375 C206.052903,35.6250246 204.348493,39.7643061 200.939622,43.1289062 Z M179.291184,40.0742188 C181.814635,42.5976689 184.913562,43.859375 188.588059,43.859375 C192.262557,43.859375 195.361484,42.5866013 197.884934,40.0410156 C200.408385,37.49543 201.670091,34.385435 201.670091,30.7109375 C201.670091,27.03644 200.408385,23.926445 197.884934,21.3808594 C195.361484,18.8352737 192.262557,17.5625 188.588059,17.5625 C184.913562,17.5625 181.814635,18.8352737 179.291184,21.3808594 C176.767734,23.926445 175.506028,27.03644 175.506028,30.7109375 C175.506028,34.385435 176.767734,37.5064976 179.291184,40.0742188 Z M216.146653,22.8085938 C216.146653,24.3138096 216.810709,25.5091102 218.138841,26.3945312 C219.466972,27.2799523 221.082842,27.9661434 222.986497,28.453125 C224.890152,28.9401066 226.793779,29.4824189 228.697434,30.0800781 C230.60109,30.6777374 232.216959,31.6738212 233.545091,33.0683594 C234.873222,34.4628976 235.537278,36.2890512 235.537278,38.546875 C235.537278,41.3802225 234.419451,43.6822828 232.183763,45.453125 C229.948074,47.2239672 227.059431,48.109375 223.517747,48.109375 C220.330231,48.109375 217.61867,47.4010488 215.382981,45.984375 C213.147293,44.5677012 211.586762,42.73048 210.701341,40.4726562 L214.420091,38.28125 C215.039885,40.0078211 216.157713,41.3691356 217.773606,42.3652344 C219.3895,43.3613331 221.304194,43.859375 223.517747,43.859375 C225.687029,43.859375 227.502115,43.4277387 228.963059,42.5644531 C230.424004,41.7011676 231.154466,40.3619882 231.154466,38.546875 C231.154466,37.0416591 230.49041,35.8463586 229.162278,34.9609375 C227.834147,34.0755164 226.218277,33.3893254 224.314622,32.9023438 C222.410967,32.4153621 220.50734,31.8730499 218.603684,31.2753906 C216.700029,30.6777314 215.08416,29.6816476 213.756028,28.2871094 C212.427897,26.8925712 211.763841,25.0664175 211.763841,22.8085938 C211.763841,20.1080594 212.837398,17.8502695 214.984544,16.0351562 C217.13169,14.220043 219.843251,13.3125 223.119309,13.3125 C225.819844,13.3125 228.18831,13.9212179 230.224778,15.1386719 C232.261247,16.3561259 233.76644,18.0051979 234.740403,20.0859375 L231.088059,22.2109375 C229.804199,19.1119637 227.147975,17.5625 223.119309,17.5625 C221.215654,17.5625 219.57765,18.0162715 218.205247,18.9238281 C216.832844,19.8313847 216.146653,21.1262937 216.146653,22.8085938 Z" id="Logos"></path>
            </g>
        </g>
    </g>
</svg>